<mxfile host="app.diagrams.net" agent="Mozilla/5.0 (Windows NT 10.0; Win64; x64; rv:138.0) Gecko/20100101 Firefox/138.0" version="27.0.6" pages="2">
  <diagram name="Страница — 1" id="Jdc4S57rXp9AgxKnfg9b">
    <mxGraphModel dx="1449" dy="652" grid="1" gridSize="10" guides="1" tooltips="1" connect="1" arrows="1" fold="1" page="1" pageScale="1" pageWidth="827" pageHeight="1169" math="0" shadow="0">
      <root>
        <mxCell id="0" />
        <mxCell id="1" parent="0" />
        <mxCell id="jcuoOFMHtpXngd_Aet67-60" value="Бесшовная &lt;br&gt;работа с ДО" style="whiteSpace=wrap;html=1;horizontal=1;dashed=1;verticalAlign=middle;align=center;fillColor=#eeeeee;strokeColor=#36393d;" vertex="1" parent="1">
          <mxGeometry x="40" y="407" width="70" height="158.5" as="geometry" />
        </mxCell>
        <mxCell id="jcuoOFMHtpXngd_Aet67-59" value="После Начала &lt;br&gt;Работы Системы" style="whiteSpace=wrap;html=1;horizontal=1;align=center;verticalAlign=middle;strokeColor=#36393d;dashed=1;rounded=0;glass=0;shadow=0;fillColor=#eeeeee;" vertex="1" parent="1">
          <mxGeometry x="40" y="90" width="70" height="307" as="geometry" />
        </mxCell>
        <mxCell id="jcuoOFMHtpXngd_Aet67-3" style="edgeStyle=orthogonalEdgeStyle;rounded=0;orthogonalLoop=1;jettySize=auto;html=1;entryX=0.5;entryY=0;entryDx=0;entryDy=0;" edge="1" parent="1" source="jcuoOFMHtpXngd_Aet67-1" target="jcuoOFMHtpXngd_Aet67-2">
          <mxGeometry relative="1" as="geometry" />
        </mxCell>
        <mxCell id="jcuoOFMHtpXngd_Aet67-1" value="User ERP" style="rounded=0;whiteSpace=wrap;html=1;" vertex="1" parent="1">
          <mxGeometry x="110" y="20" width="120" height="60" as="geometry" />
        </mxCell>
        <mxCell id="jcuoOFMHtpXngd_Aet67-2" value="User ERP" style="rounded=0;whiteSpace=wrap;html=1;" vertex="1" parent="1">
          <mxGeometry x="110" y="585" width="120" height="60" as="geometry" />
        </mxCell>
        <mxCell id="jcuoOFMHtpXngd_Aet67-7" style="edgeStyle=orthogonalEdgeStyle;rounded=0;orthogonalLoop=1;jettySize=auto;html=1;" edge="1" parent="1" source="jcuoOFMHtpXngd_Aet67-4" target="jcuoOFMHtpXngd_Aet67-6">
          <mxGeometry relative="1" as="geometry" />
        </mxCell>
        <mxCell id="jcuoOFMHtpXngd_Aet67-4" value="&lt;div&gt;&lt;span data-huuid=&quot;15168015682799716802&quot;&gt;&lt;span&gt;ERP&lt;/span&gt;&lt;/span&gt;&lt;/div&gt;" style="rounded=0;whiteSpace=wrap;html=1;" vertex="1" parent="1">
          <mxGeometry x="600" y="20" width="120" height="60" as="geometry" />
        </mxCell>
        <mxCell id="jcuoOFMHtpXngd_Aet67-5" value="Сервер приложений&lt;br&gt;8.3.21 и выше" style="rounded=0;whiteSpace=wrap;html=1;" vertex="1" parent="1">
          <mxGeometry x="840" y="20" width="120" height="60" as="geometry" />
        </mxCell>
        <mxCell id="jcuoOFMHtpXngd_Aet67-6" value="&lt;div&gt;&lt;span data-huuid=&quot;15168015682799716802&quot;&gt;&lt;span&gt;ERP&lt;/span&gt;&lt;/span&gt;&lt;/div&gt;" style="rounded=0;whiteSpace=wrap;html=1;" vertex="1" parent="1">
          <mxGeometry x="600" y="585" width="120" height="60" as="geometry" />
        </mxCell>
        <mxCell id="jcuoOFMHtpXngd_Aet67-12" value="" style="endArrow=classic;html=1;rounded=0;" edge="1" parent="1">
          <mxGeometry width="50" height="50" relative="1" as="geometry">
            <mxPoint x="170" y="429" as="sourcePoint" />
            <mxPoint x="900" y="429" as="targetPoint" />
          </mxGeometry>
        </mxCell>
        <mxCell id="jcuoOFMHtpXngd_Aet67-16" value="&lt;span&gt;Генерация&lt;br&gt;JWT&lt;/span&gt;" style="html=1;align=left;spacingLeft=2;endArrow=block;rounded=0;edgeStyle=orthogonalEdgeStyle;curved=0;rounded=0;fillColor=#eeeeee;strokeColor=#36393d;" edge="1" parent="1">
          <mxGeometry relative="1" as="geometry">
            <mxPoint x="660" y="270" as="sourcePoint" />
            <Array as="points">
              <mxPoint x="690" y="300" />
            </Array>
            <mxPoint x="665" y="300" as="targetPoint" />
          </mxGeometry>
        </mxCell>
        <mxCell id="jcuoOFMHtpXngd_Aet67-17" value="Запрос WS с параметром в заголовке - &lt;b&gt;AccessToken = JWT&lt;/b&gt;" style="text;html=1;align=center;verticalAlign=middle;resizable=0;points=[];autosize=1;strokeColor=none;fillColor=none;" vertex="1" parent="1">
          <mxGeometry x="427" y="400" width="360" height="30" as="geometry" />
        </mxCell>
        <mxCell id="jcuoOFMHtpXngd_Aet67-18" value="Сервер приложений&lt;br&gt;8.3.21 и выше" style="rounded=0;whiteSpace=wrap;html=1;" vertex="1" parent="1">
          <mxGeometry x="840" y="585" width="120" height="60" as="geometry" />
        </mxCell>
        <mxCell id="jcuoOFMHtpXngd_Aet67-19" style="edgeStyle=orthogonalEdgeStyle;rounded=0;orthogonalLoop=1;jettySize=auto;html=1;entryX=0.5;entryY=0;entryDx=0;entryDy=0;" edge="1" parent="1" target="jcuoOFMHtpXngd_Aet67-18">
          <mxGeometry relative="1" as="geometry">
            <mxPoint x="899.5" y="80" as="sourcePoint" />
            <mxPoint x="899.5" y="500" as="targetPoint" />
          </mxGeometry>
        </mxCell>
        <mxCell id="jcuoOFMHtpXngd_Aet67-20" value="Проверяет подпись&lt;br&gt;JWT" style="html=1;align=left;spacingLeft=2;endArrow=block;rounded=0;edgeStyle=orthogonalEdgeStyle;curved=0;rounded=0;" edge="1" parent="1">
          <mxGeometry relative="1" as="geometry">
            <mxPoint x="900" y="440" as="sourcePoint" />
            <Array as="points">
              <mxPoint x="930" y="470" />
            </Array>
            <mxPoint x="905" y="470" as="targetPoint" />
          </mxGeometry>
        </mxCell>
        <mxCell id="jcuoOFMHtpXngd_Aet67-21" value="" style="endArrow=classic;html=1;rounded=0;" edge="1" parent="1">
          <mxGeometry width="50" height="50" relative="1" as="geometry">
            <mxPoint x="1220" y="550" as="sourcePoint" />
            <mxPoint x="170" y="544" as="targetPoint" />
          </mxGeometry>
        </mxCell>
        <mxCell id="jcuoOFMHtpXngd_Aet67-23" value="Возвращает запрошенные данные, в случае успешной авторизации" style="text;html=1;align=center;verticalAlign=middle;resizable=0;points=[];autosize=1;strokeColor=none;fillColor=none;" vertex="1" parent="1">
          <mxGeometry x="580" y="520" width="400" height="30" as="geometry" />
        </mxCell>
        <mxCell id="jcuoOFMHtpXngd_Aet67-28" value="ПослеНачалаРаботы" style="text;html=1;align=center;verticalAlign=middle;resizable=0;points=[];autosize=1;strokeColor=none;fillColor=none;" vertex="1" parent="1">
          <mxGeometry x="202" y="1680" width="140" height="30" as="geometry" />
        </mxCell>
        <mxCell id="jcuoOFMHtpXngd_Aet67-29" value="ПрочитатьНастройкиАвторизации JWT из &lt;br&gt;&lt;div&gt;РС: НастройкиАвторизацииВ1СДокументообороте&lt;br&gt;по ТекПользователю&lt;/div&gt;" style="text;html=1;align=center;verticalAlign=middle;resizable=0;points=[];autosize=1;strokeColor=none;fillColor=none;" vertex="1" parent="1">
          <mxGeometry x="275" y="1700" width="310" height="60" as="geometry" />
        </mxCell>
        <mxCell id="jcuoOFMHtpXngd_Aet67-30" value="УстановитьНастройкиВПараметрыСеанса&lt;br&gt;&quot;ИспользуетсяАутентификацияJWT&quot;" style="text;html=1;align=center;verticalAlign=middle;resizable=0;points=[];autosize=1;strokeColor=none;fillColor=none;" vertex="1" parent="1">
          <mxGeometry x="300" y="1760" width="260" height="40" as="geometry" />
        </mxCell>
        <mxCell id="jcuoOFMHtpXngd_Aet67-34" style="edgeStyle=orthogonalEdgeStyle;rounded=0;orthogonalLoop=1;jettySize=auto;html=1;" edge="1" parent="1" source="jcuoOFMHtpXngd_Aet67-32" target="jcuoOFMHtpXngd_Aet67-33">
          <mxGeometry relative="1" as="geometry" />
        </mxCell>
        <mxCell id="jcuoOFMHtpXngd_Aet67-32" value="ИспользуетсяАутентификацияJWT?" style="rhombus;whiteSpace=wrap;html=1;" vertex="1" parent="1">
          <mxGeometry x="295" y="1800" width="260" height="80" as="geometry" />
        </mxCell>
        <mxCell id="jcuoOFMHtpXngd_Aet67-38" style="edgeStyle=orthogonalEdgeStyle;rounded=0;orthogonalLoop=1;jettySize=auto;html=1;entryX=0.5;entryY=0;entryDx=0;entryDy=0;" edge="1" parent="1" source="jcuoOFMHtpXngd_Aet67-33" target="jcuoOFMHtpXngd_Aet67-37">
          <mxGeometry relative="1" as="geometry" />
        </mxCell>
        <mxCell id="jcuoOFMHtpXngd_Aet67-33" value="1. Генерация JWT из ERP&lt;br&gt;2. JWT в ПараметрыСеанса&lt;br&gt;3. ПодключитьОбработчикОжидания(&lt;br&gt;ВремяДействияТокена)" style="whiteSpace=wrap;html=1;" vertex="1" parent="1">
          <mxGeometry x="305" y="1916" width="240" height="60" as="geometry" />
        </mxCell>
        <mxCell id="jcuoOFMHtpXngd_Aet67-35" value="Да" style="text;html=1;align=center;verticalAlign=middle;resizable=0;points=[];autosize=1;strokeColor=none;fillColor=none;" vertex="1" parent="1">
          <mxGeometry x="425" y="1880" width="40" height="30" as="geometry" />
        </mxCell>
        <mxCell id="jcuoOFMHtpXngd_Aet67-37" value="ОМ.ИнтеграцияСДОКлиент.&lt;br&gt;ПроверитьПодключение()" style="whiteSpace=wrap;html=1;" vertex="1" parent="1">
          <mxGeometry x="305" y="2016" width="240" height="60" as="geometry" />
        </mxCell>
        <mxCell id="jcuoOFMHtpXngd_Aet67-39" value="&lt;div style=&quot;color: rgb(59, 59, 59); background-color: rgb(255, 255, 255); font-family: Consolas, &amp;quot;Courier New&amp;quot;, monospace; font-weight: normal; font-size: 14px; line-height: 19px; white-space: pre;&quot;&gt;&lt;div&gt;&lt;span style=&quot;color: rgb(59, 59, 59);&quot;&gt;//header&lt;/span&gt;&lt;/div&gt;&lt;div&gt;&lt;span style=&quot;color: rgb(59, 59, 59);&quot;&gt;//header Всегда постоянный&lt;/span&gt;&lt;/div&gt;&lt;div&gt;&lt;span style=&quot;color: rgb(59, 59, 59);&quot;&gt;{&lt;/span&gt;&lt;/div&gt;&lt;div&gt;&lt;span style=&quot;color: rgb(59, 59, 59);&quot;&gt;&amp;nbsp; &lt;/span&gt;&lt;span style=&quot;color: rgb(163, 21, 21);&quot;&gt;&quot;alg&quot;&lt;/span&gt;&lt;span style=&quot;color: rgb(59, 59, 59);&quot;&gt;: &lt;/span&gt;&lt;span style=&quot;color: rgb(163, 21, 21);&quot;&gt;&quot;HS256&quot;&lt;/span&gt;&lt;span style=&quot;color: rgb(59, 59, 59);&quot;&gt;, &amp;nbsp; &lt;/span&gt;&lt;/div&gt;&lt;div&gt;&lt;span style=&quot;color: rgb(59, 59, 59);&quot;&gt;&amp;nbsp; &lt;/span&gt;&lt;span style=&quot;color: rgb(163, 21, 21);&quot;&gt;&quot;typ&quot;&lt;/span&gt;&lt;span style=&quot;color: rgb(59, 59, 59);&quot;&gt;: &lt;/span&gt;&lt;span style=&quot;color: rgb(163, 21, 21);&quot;&gt;&quot;JWT&quot;&lt;/span&gt;&lt;/div&gt;&lt;div&gt;&lt;span style=&quot;color: rgb(59, 59, 59);&quot;&gt;}&lt;/span&gt;&lt;/div&gt;&lt;br&gt;&lt;div&gt;&lt;span style=&quot;color: rgb(59, 59, 59);&quot;&gt;//payload&lt;/span&gt;&lt;/div&gt;&lt;div&gt;&lt;span style=&quot;color: rgb(59, 59, 59);&quot;&gt;{&lt;/span&gt;&lt;/div&gt;&lt;div&gt;&lt;span style=&quot;color: rgb(59, 59, 59);&quot;&gt;&amp;nbsp; &lt;/span&gt;&lt;span style=&quot;color: rgb(163, 21, 21);&quot;&gt;&quot;aud&quot;&lt;/span&gt;&lt;span style=&quot;color: rgb(59, 59, 59);&quot;&gt;: &lt;/span&gt;&lt;span style=&quot;color: rgb(163, 21, 21);&quot;&gt;&quot;dmil&quot;&lt;/span&gt;&lt;span style=&quot;color: rgb(59, 59, 59);&quot;&gt;, &amp;nbsp; &amp;nbsp; &amp;nbsp; &amp;nbsp; &amp;nbsp; &amp;nbsp; &amp;nbsp; &amp;nbsp; &amp;nbsp; &amp;nbsp; &amp;nbsp; &amp;nbsp; &amp;nbsp; &amp;nbsp; &amp;nbsp; &amp;nbsp; &amp;nbsp;- Сервисы получатели&lt;/span&gt;&lt;/div&gt;&lt;div&gt;&lt;span style=&quot;color: rgb(59, 59, 59);&quot;&gt;&amp;nbsp; &lt;/span&gt;&lt;span style=&quot;color: rgb(163, 21, 21);&quot;&gt;&quot;nbf&quot;&lt;/span&gt;&lt;span style=&quot;color: rgb(59, 59, 59);&quot;&gt;: 1750249605, &amp;nbsp; &amp;nbsp; &amp;nbsp; &amp;nbsp; &amp;nbsp; &amp;nbsp; &amp;nbsp; &amp;nbsp; &amp;nbsp; &amp;nbsp; &amp;nbsp; &amp;nbsp; &amp;nbsp; &amp;nbsp; &amp;nbsp;- Время с которого токен начинает действовать и равен Время создания&lt;/span&gt;&lt;/div&gt;&lt;div&gt;&lt;span style=&quot;color: rgb(59, 59, 59);&quot;&gt;&amp;nbsp; &lt;/span&gt;&lt;span style=&quot;color: rgb(163, 21, 21);&quot;&gt;&quot;sub&quot;&lt;/span&gt;&lt;span style=&quot;color: rgb(59, 59, 59);&quot;&gt;: &lt;/span&gt;&lt;span style=&quot;color: rgb(163, 21, 21);&quot;&gt;&quot;ABR\\tolag&quot;&lt;/span&gt;&lt;span style=&quot;color: rgb(59, 59, 59);&quot;&gt;, &amp;nbsp; &amp;nbsp; &amp;nbsp; &amp;nbsp; &amp;nbsp; &amp;nbsp; &amp;nbsp; &amp;nbsp; &amp;nbsp; &amp;nbsp; &amp;nbsp; &amp;nbsp; &amp;nbsp; &amp;nbsp;- КлючСопоставленияПользователя в ДО&lt;/span&gt;&lt;/div&gt;&lt;div&gt;&lt;span style=&quot;color: rgb(59, 59, 59);&quot;&gt;&amp;nbsp; &lt;/span&gt;&lt;span style=&quot;color: rgb(163, 21, 21);&quot;&gt;&quot;jti&quot;&lt;/span&gt;&lt;span style=&quot;color: rgb(59, 59, 59);&quot;&gt;: &lt;/span&gt;&lt;span style=&quot;color: rgb(163, 21, 21);&quot;&gt;&quot;06146aef-12e0-4719-b4cb-9d9eb3b23540&quot;&lt;/span&gt;&lt;span style=&quot;color: rgb(59, 59, 59);&quot;&gt;, &amp;nbsp;- Уникальный идентификатор токена&lt;/span&gt;&lt;/div&gt;&lt;div&gt;&lt;span style=&quot;color: rgb(59, 59, 59);&quot;&gt;&amp;nbsp; &lt;/span&gt;&lt;span style=&quot;color: rgb(163, 21, 21);&quot;&gt;&quot;exp&quot;&lt;/span&gt;&lt;span style=&quot;color: rgb(59, 59, 59);&quot;&gt;: 1750292865, &amp;nbsp; &amp;nbsp; &amp;nbsp; &amp;nbsp; &amp;nbsp; &amp;nbsp; &amp;nbsp; &amp;nbsp; &amp;nbsp; &amp;nbsp; &amp;nbsp; &amp;nbsp; &amp;nbsp; &amp;nbsp; &amp;nbsp;- Время жизни токена&lt;/span&gt;&lt;/div&gt;&lt;div&gt;&lt;span style=&quot;color: rgb(59, 59, 59);&quot;&gt;&amp;nbsp; &lt;/span&gt;&lt;span style=&quot;color: rgb(163, 21, 21);&quot;&gt;&quot;iat&quot;&lt;/span&gt;&lt;span style=&quot;color: rgb(59, 59, 59);&quot;&gt;: 1750249605, &amp;nbsp; &amp;nbsp; &amp;nbsp; &amp;nbsp; &amp;nbsp; &amp;nbsp; &amp;nbsp; &amp;nbsp; &amp;nbsp; &amp;nbsp; &amp;nbsp; &amp;nbsp; &amp;nbsp; &amp;nbsp; &amp;nbsp;- Время создания токена&lt;/span&gt;&lt;/div&gt;&lt;div&gt;&lt;span style=&quot;color: rgb(59, 59, 59);&quot;&gt;&amp;nbsp; &lt;/span&gt;&lt;span style=&quot;color: rgb(163, 21, 21);&quot;&gt;&quot;iss&quot;&lt;/span&gt;&lt;span style=&quot;color: rgb(59, 59, 59);&quot;&gt;: &lt;/span&gt;&lt;span style=&quot;color: rgb(163, 21, 21);&quot;&gt;&quot;ssl&quot;&lt;/span&gt;&lt;span style=&quot;color: rgb(59, 59, 59);&quot;&gt; &amp;nbsp; &amp;nbsp; &amp;nbsp; &amp;nbsp; &amp;nbsp; &amp;nbsp; &amp;nbsp; &amp;nbsp; &amp;nbsp; &amp;nbsp; &amp;nbsp; &amp;nbsp; &amp;nbsp; &amp;nbsp; &amp;nbsp; &amp;nbsp; &amp;nbsp; &amp;nbsp;- Эмитент токена&lt;/span&gt;&lt;/div&gt;&lt;div&gt;&lt;span style=&quot;color: rgb(59, 59, 59);&quot;&gt;}&lt;/span&gt;&lt;/div&gt;&lt;br&gt;&lt;div&gt;&lt;span style=&quot;color: rgb(59, 59, 59);&quot;&gt;Sign - H4fWJdSddLEkLiOOXDmnx+&lt;/span&gt;&lt;span style=&quot;color: rgb(0, 0, 255);&quot;&gt;y2Tr1NbA4Xa2uUHalLc2M&lt;/span&gt;&lt;span style=&quot;color: rgb(59, 59, 59);&quot;&gt;= - Константа, хранится в ERP и публикации ДО default.vrd (keyInformation)&lt;/span&gt;&lt;/div&gt;&lt;br&gt;&lt;div&gt;&lt;span style=&quot;color: rgb(59, 59, 59);&quot;&gt;Результат генерации токена: &lt;/span&gt;&lt;/div&gt;&lt;br&gt;&lt;div&gt;&lt;span style=&quot;color: rgb(59, 59, 59);&quot;&gt;eyJhbGciOiJIUzI1NiIsInR5cCI6IkpXVCJ9.&lt;/span&gt;&lt;/div&gt;&lt;div&gt;&lt;span style=&quot;color: rgb(59, 59, 59);&quot;&gt;eyJhdWQiOiJkbWlsIiwibmJmIjoxNzUwMjQ5NjA1LCJzdWIiOiJBQlJcXHRvbGFnIiwianRpIjoiMDYxNDZhZWYtMTJlMC00Nz&lt;/span&gt;&lt;/div&gt;&lt;div&gt;&lt;span style=&quot;color: rgb(59, 59, 59);&quot;&gt;E5LWI0Y2ItOWQ5ZWIzYjIzNTQwIiwiZXhwIjoxNzUwMjkyODY1LCJpYXQiOjE3NTAyNDk2MDUsImlzcyI6InNzbCJ9.&lt;/span&gt;&lt;/div&gt;&lt;div&gt;&lt;span style=&quot;color: rgb(59, 59, 59);&quot;&gt;FaaKKx-CHCOtu2lg601JaeEWGjZRfA38Dv-XT4miWlU&lt;/span&gt;&lt;/div&gt;&lt;/div&gt;" style="text;html=1;align=left;verticalAlign=middle;resizable=0;points=[];autosize=1;strokeColor=none;fillColor=none;" vertex="1" parent="1">
          <mxGeometry x="20" y="660" width="980" height="510" as="geometry" />
        </mxCell>
        <mxCell id="jcuoOFMHtpXngd_Aet67-45" value="" style="endArrow=classic;html=1;rounded=0;" edge="1" parent="1">
          <mxGeometry width="50" height="50" relative="1" as="geometry">
            <mxPoint x="170" y="133" as="sourcePoint" />
            <mxPoint x="660" y="133" as="targetPoint" />
          </mxGeometry>
        </mxCell>
        <mxCell id="jcuoOFMHtpXngd_Aet67-46" value="ПрочитатьНастройкиАвторизации JWT из РС:&lt;br&gt;НастройкиАвторизацииВ1СДокументообороте по ТекПользователю" style="text;html=1;align=left;verticalAlign=middle;resizable=0;points=[];autosize=1;strokeColor=none;fillColor=none;" vertex="1" parent="1">
          <mxGeometry x="186" y="87" width="400" height="40" as="geometry" />
        </mxCell>
        <mxCell id="jcuoOFMHtpXngd_Aet67-47" value="" style="endArrow=classic;html=1;rounded=0;" edge="1" parent="1">
          <mxGeometry width="50" height="50" relative="1" as="geometry">
            <mxPoint x="661" y="190" as="sourcePoint" />
            <mxPoint x="171" y="190" as="targetPoint" />
          </mxGeometry>
        </mxCell>
        <mxCell id="jcuoOFMHtpXngd_Aet67-48" value="УстановитьНастройкиВПараметрыСеанса &quot;ИспользуетсяАутентификацияJWT&quot;" style="text;html=1;align=left;verticalAlign=middle;resizable=0;points=[];autosize=1;strokeColor=none;fillColor=none;" vertex="1" parent="1">
          <mxGeometry x="186" y="160" width="460" height="30" as="geometry" />
        </mxCell>
        <mxCell id="jcuoOFMHtpXngd_Aet67-49" value="ИспользуетсяАутентификацияJWT&lt;br&gt;Сработал обработчик ожидания" style="text;html=1;align=left;verticalAlign=middle;resizable=0;points=[];autosize=1;strokeColor=none;fillColor=none;" vertex="1" parent="1">
          <mxGeometry x="306" y="211" width="220" height="40" as="geometry" />
        </mxCell>
        <mxCell id="jcuoOFMHtpXngd_Aet67-50" value="" style="endArrow=classic;html=1;rounded=0;" edge="1" parent="1">
          <mxGeometry width="50" height="50" relative="1" as="geometry">
            <mxPoint x="171" y="250" as="sourcePoint" />
            <mxPoint x="661" y="250" as="targetPoint" />
          </mxGeometry>
        </mxCell>
        <mxCell id="jcuoOFMHtpXngd_Aet67-51" value="" style="endArrow=classic;html=1;rounded=0;" edge="1" parent="1">
          <mxGeometry width="50" height="50" relative="1" as="geometry">
            <mxPoint x="661" y="330" as="sourcePoint" />
            <mxPoint x="171" y="330" as="targetPoint" />
          </mxGeometry>
        </mxCell>
        <mxCell id="jcuoOFMHtpXngd_Aet67-52" value="Возвращает JWT и Запись JWT в ПараметрыСеанса" style="text;html=1;align=left;verticalAlign=middle;resizable=0;points=[];autosize=1;strokeColor=none;fillColor=none;" vertex="1" parent="1">
          <mxGeometry x="267" y="300" width="320" height="30" as="geometry" />
        </mxCell>
        <mxCell id="jcuoOFMHtpXngd_Aet67-53" value="ПодключитьОбработчикОжидания (Время действия токена)" style="html=1;align=left;spacingLeft=2;endArrow=block;rounded=0;edgeStyle=orthogonalEdgeStyle;curved=0;rounded=0;" edge="1" parent="1">
          <mxGeometry relative="1" as="geometry">
            <mxPoint x="170" y="360" as="sourcePoint" />
            <Array as="points">
              <mxPoint x="200" y="390" />
            </Array>
            <mxPoint x="175" y="390" as="targetPoint" />
          </mxGeometry>
        </mxCell>
        <mxCell id="jcuoOFMHtpXngd_Aet67-56" style="edgeStyle=orthogonalEdgeStyle;rounded=0;orthogonalLoop=1;jettySize=auto;html=1;" edge="1" parent="1" source="jcuoOFMHtpXngd_Aet67-54" target="jcuoOFMHtpXngd_Aet67-55">
          <mxGeometry relative="1" as="geometry" />
        </mxCell>
        <mxCell id="jcuoOFMHtpXngd_Aet67-54" value="ДО" style="whiteSpace=wrap;html=1;" vertex="1" parent="1">
          <mxGeometry x="1160" y="20" width="120" height="60" as="geometry" />
        </mxCell>
        <mxCell id="jcuoOFMHtpXngd_Aet67-55" value="ДО" style="whiteSpace=wrap;html=1;" vertex="1" parent="1">
          <mxGeometry x="1160" y="585" width="120" height="60" as="geometry" />
        </mxCell>
        <mxCell id="jcuoOFMHtpXngd_Aet67-57" value="" style="edgeStyle=none;orthogonalLoop=1;jettySize=auto;html=1;rounded=0;" edge="1" parent="1">
          <mxGeometry width="100" relative="1" as="geometry">
            <mxPoint x="902" y="510" as="sourcePoint" />
            <mxPoint x="1222" y="510" as="targetPoint" />
            <Array as="points" />
          </mxGeometry>
        </mxCell>
        <mxCell id="jcuoOFMHtpXngd_Aet67-58" value="Если Подпись верна. Поиск пользователя по ОСName " style="text;html=1;align=center;verticalAlign=middle;resizable=0;points=[];autosize=1;strokeColor=none;fillColor=none;" vertex="1" parent="1">
          <mxGeometry x="900" y="480" width="330" height="30" as="geometry" />
        </mxCell>
      </root>
    </mxGraphModel>
  </diagram>
  <diagram id="Q8bMvawIrKZ8L0Ca9dnD" name="Страница — 2">
    <mxGraphModel grid="1" page="1" gridSize="10" guides="1" tooltips="1" connect="1" arrows="1" fold="1" pageScale="1" pageWidth="827" pageHeight="1169" math="0" shadow="0">
      <root>
        <mxCell id="0" />
        <mxCell id="1" parent="0" />
      </root>
    </mxGraphModel>
  </diagram>
</mxfile>
